<svg width="25" height="25" viewBox="0 0 25 25" fill="none" xmlns="http://www.w3.org/2000/svg">
<path d="M17.4518 17.0264C17.304 16.9306 17.1243 16.8971 16.9519 16.9333C16.7795 16.9696 16.6285 17.0725 16.5318 17.2198C15.5918 18.6598 13.8651 20.4264 12.3251 21.0198C10.7851 21.6131 9.57842 21.3998 9.09842 21.0198C8.89176 20.8398 8.35176 20.3531 8.81176 18.6931C9.11842 17.5864 11.0251 12.3731 11.4784 11.1064L10.0251 11.2931C9.56509 12.5331 7.83176 17.1864 7.51842 18.3464C7.06509 20.0064 7.29176 21.2131 8.24509 22.0531C8.9112 22.5205 9.71196 22.7569 10.5251 22.7264C11.3141 22.7151 12.0941 22.5568 12.8251 22.2598C14.6851 21.5331 16.6384 19.5131 17.6651 17.9464C17.7116 17.8721 17.743 17.7892 17.7575 17.7027C17.772 17.6162 17.7692 17.5276 17.7494 17.4422C17.7296 17.3567 17.6931 17.276 17.642 17.2046C17.5909 17.1333 17.5263 17.0727 17.4518 17.0264Z" fill="#FF0000"/>
<path d="M13.3916 7.39307C13.9849 7.39307 14.565 7.21712 15.0583 6.88748C15.5517 6.55783 15.9362 6.0893 16.1632 5.54112C16.3903 4.99294 16.4497 4.38974 16.334 3.8078C16.2182 3.22585 15.9325 2.6913 15.5129 2.27175C15.0934 1.85219 14.5588 1.56647 13.9769 1.45071C13.3949 1.33496 12.7917 1.39437 12.2436 1.62143C11.6954 1.84849 11.2268 2.23301 10.8972 2.72636C10.5675 3.2197 10.3916 3.79972 10.3916 4.39307C10.3916 5.18872 10.7077 5.95178 11.2703 6.51439C11.8329 7.077 12.596 7.39307 13.3916 7.39307ZM13.3916 2.7264C13.7212 2.7264 14.0435 2.82415 14.3176 3.00728C14.5916 3.19042 14.8053 3.45072 14.9314 3.75526C15.0575 4.05981 15.0906 4.39492 15.0262 4.71822C14.9619 5.04152 14.8032 5.33849 14.5701 5.57158C14.337 5.80467 14.0401 5.9634 13.7168 6.02771C13.3935 6.09202 13.0583 6.05901 12.7538 5.93287C12.4493 5.80672 12.189 5.5931 12.0058 5.31902C11.8227 5.04494 11.7249 4.7227 11.7249 4.39307C11.7249 3.95104 11.9005 3.52712 12.2131 3.21456C12.5257 2.902 12.9496 2.7264 13.3916 2.7264Z" fill="#FF0000"/>
<path d="M8.39828 10.0599C8.43828 10.0599 12.5783 9.51323 13.5516 9.39323C13.9849 9.32657 14.3116 9.39323 14.4183 9.49323C14.5249 9.59323 14.5583 10.0266 14.3716 10.6132C13.9649 11.8532 11.9116 17.9466 11.3116 19.7532C11.6049 19.6931 11.8926 19.6083 12.1716 19.4999C12.4385 19.3895 12.6951 19.2557 12.9383 19.0999C13.7583 16.7266 15.2916 12.1266 15.6383 11.0732C15.9849 10.0199 15.8983 9.2199 15.4383 8.67323C15.1759 8.40717 14.8474 8.2157 14.4866 8.11846C14.1257 8.02123 13.7455 8.02172 13.3849 8.1199C12.4316 8.2199 8.40494 8.74657 8.23161 8.78657C8.0548 8.80955 7.89436 8.90183 7.78559 9.04311C7.67682 9.18439 7.62862 9.36309 7.65161 9.5399C7.67459 9.71671 7.76688 9.87715 7.90815 9.98592C8.04943 10.0947 8.22813 10.1429 8.40494 10.1199L8.39828 10.0599Z" fill="#FF0000"/>
</svg>
