<svg width="201" height="64" viewBox="0 0 201 64" fill="none" xmlns="http://www.w3.org/2000/svg">
<path d="M56.8399 19.4379V44.5772C56.8399 45.4889 56.0927 46.2065 55.1685 46.2065H19.7183C19.3447 46.2065 19.0104 46.0901 18.7352 45.8769C19.2464 46.2065 19.9149 46.2454 20.4851 45.9351L42.5456 33.3654C43.0569 33.0745 43.3518 32.5507 43.3715 32.0075C43.3518 31.4645 43.0569 30.9406 42.5456 30.6497L20.4655 18.0607C19.8756 17.7309 19.1677 17.7891 18.6565 18.1577C18.9515 17.9249 19.3053 17.7891 19.7183 17.7891H55.1883C56.0927 17.7891 56.8399 18.5262 56.8399 19.4379Z" fill="#079171"/>
<path d="M43.3724 32.0075C43.3528 31.4644 43.0578 30.9407 42.5466 30.6498L20.4663 18.0606C19.8765 17.731 19.1687 17.7892 18.6575 18.1577L18.6378 18.177C18.2839 18.468 18.0479 18.9336 18.0479 19.4185V44.5578C18.0479 45.0622 18.2839 45.5277 18.6575 45.8186C18.4806 45.6828 18.3233 45.5277 18.2053 45.3143L10.3799 32.0075L0.45063 15.0346C-0.00159524 14.2394 0.254005 13.2501 1.06014 12.7845L23.1404 0.214896C23.9465 -0.231248 24.9493 0.0403181 25.4212 0.816222L35.3503 17.7892L43.1561 31.1153C43.3134 31.4063 43.3724 31.6972 43.3724 32.0075Z" fill="#31CEAA"/>
<path d="M43.3721 32.0074C43.3525 32.5506 43.0574 33.0743 42.5462 33.3653L20.466 45.9349C19.8959 46.2452 19.2274 46.2065 18.7162 45.8767C18.6964 45.8573 18.6768 45.8379 18.6375 45.8186C18.2639 45.5276 18.028 45.0621 18.028 44.5577V19.4378C18.028 18.9335 18.2443 18.4874 18.6179 18.1964L18.6375 18.1769C19.1487 17.8084 19.8566 17.7502 20.4463 18.08L42.5462 30.6497C43.0574 30.9406 43.3525 31.4644 43.3721 32.0074Z" fill="#F2F2F2"/>
<path d="M43.3725 32.0077C43.3921 32.2986 43.3134 32.6089 43.1562 32.8805L35.3504 46.2067L25.4211 63.1796C24.969 63.9749 23.9466 64.227 23.1403 63.781L1.06014 51.2113C0.254005 50.7651 -0.00159518 49.7564 0.45063 48.9611L10.3799 32.0077L18.1856 18.6815C18.3036 18.4875 18.4608 18.3129 18.6182 18.1965C18.2643 18.4875 18.0283 18.9532 18.0283 19.438V44.5773C18.0283 45.0817 18.2643 45.5472 18.6379 45.8382C18.6575 45.8575 18.6771 45.877 18.7164 45.8964C19.2276 46.2262 19.8962 46.2649 20.4663 45.9546L42.5466 33.3655C43.0578 33.0746 43.3527 32.5507 43.3725 32.0077Z" fill="#00C868"/>
<path d="M91.0022 14.0214H87.2084L82.7032 21.3955L78.1981 14.0214H74.4043V30.6193H78.1981V20.9688L82.4898 28.011H82.9167L87.2084 20.9688V30.6193H91.0022V14.0214Z" fill="black"/>
<path d="M99.2489 27.9882C99.8335 27.9882 100.348 27.9047 100.794 27.7376C101.253 27.5567 101.678 27.2783 102.067 26.9025L103.8 28.7815C102.742 29.9924 101.197 30.5979 99.1654 30.5979C97.8988 30.5979 96.7783 30.3543 95.804 29.8672C94.8297 29.3661 94.0781 28.6771 93.5492 27.8003C93.0203 26.9234 92.7559 25.9282 92.7559 24.8147C92.7559 23.7152 93.0134 22.727 93.5283 21.8501C94.0572 20.9593 94.7741 20.2703 95.6788 19.7832C96.5974 19.2821 97.6274 19.0316 98.7687 19.0316C99.8404 19.0316 100.815 19.2612 101.692 19.7205C102.568 20.1659 103.264 20.8201 103.779 21.6831C104.308 22.5321 104.573 23.5412 104.573 24.7103L96.2633 26.3179C96.5 26.8747 96.8688 27.2922 97.3699 27.5706C97.8849 27.849 98.5112 27.9882 99.2489 27.9882ZM98.7687 21.4952C97.9475 21.4952 97.2794 21.7596 96.7644 22.2885C96.2494 22.8174 95.978 23.5481 95.9502 24.4807L101.42 23.4159C101.267 22.8313 100.954 22.3651 100.481 22.0171C100.007 21.6691 99.4368 21.4952 98.7687 21.4952Z" fill="black"/>
<path d="M118.203 14.9395V30.4309H115.092V29.1365C114.285 30.1108 113.116 30.5979 111.585 30.5979C110.527 30.5979 109.567 30.3613 108.704 29.8881C107.855 29.4148 107.186 28.7398 106.699 27.8629C106.212 26.986 105.969 25.97 105.969 24.8147C105.969 23.6595 106.212 22.6434 106.699 21.7666C107.186 20.8897 107.855 20.2146 108.704 19.7414C109.567 19.2682 110.527 19.0316 111.585 19.0316C113.018 19.0316 114.139 19.4839 114.946 20.3886V14.9395H118.203ZM112.148 27.9255C112.97 27.9255 113.652 27.6472 114.194 27.0904C114.737 26.5198 115.009 25.7612 115.009 24.8147C115.009 23.8683 114.737 23.1167 114.194 22.5599C113.652 21.9893 112.97 21.7039 112.148 21.7039C111.313 21.7039 110.624 21.9893 110.082 22.5599C109.539 23.1167 109.267 23.8683 109.267 24.8147C109.267 25.7612 109.539 26.5198 110.082 27.0904C110.624 27.6472 111.313 27.9255 112.148 27.9255Z" fill="black"/>
<path d="M121.217 19.1986H124.474V30.4309H121.217V19.1986ZM122.846 17.6327C122.247 17.6327 121.76 17.4588 121.384 17.1108C121.009 16.7628 120.821 16.3314 120.821 15.8164C120.821 15.3014 121.009 14.8699 121.384 14.5219C121.76 14.174 122.247 14 122.846 14C123.444 14 123.932 14.167 124.307 14.5011C124.683 14.8351 124.871 15.2527 124.871 15.7537C124.871 16.2966 124.683 16.7489 124.307 17.1108C123.932 17.4588 123.444 17.6327 122.846 17.6327Z" fill="black"/>
<path d="M138.896 19.1986V30.4309H135.786V29.1365C134.978 30.1108 133.809 30.5979 132.278 30.5979C131.22 30.5979 130.26 30.3613 129.397 29.8881C128.548 29.4148 127.88 28.7398 127.393 27.8629C126.906 26.986 126.662 25.97 126.662 24.8147C126.662 23.6595 126.906 22.6434 127.393 21.7666C127.88 20.8897 128.548 20.2146 129.397 19.7414C130.26 19.2682 131.22 19.0316 132.278 19.0316C133.712 19.0316 134.832 19.4839 135.639 20.3886V19.1986H138.896ZM132.842 27.9255C133.663 27.9255 134.345 27.6472 134.888 27.0904C135.431 26.5198 135.702 25.7612 135.702 24.8147C135.702 23.8683 135.431 23.1167 134.888 22.5599C134.345 21.9893 133.663 21.7039 132.842 21.7039C132.007 21.7039 131.318 21.9893 130.775 22.5599C130.232 23.1167 129.961 23.8683 129.961 24.8147C129.961 25.7612 130.232 26.5198 130.775 27.0904C131.318 27.6472 132.007 27.9255 132.842 27.9255Z" fill="black"/>
<path d="M147.34 30.5979C146.143 30.5979 145.064 30.3543 144.104 29.8672C143.158 29.3661 142.413 28.6771 141.87 27.8003C141.341 26.9234 141.077 25.9282 141.077 24.8147C141.077 23.7013 141.341 22.7061 141.87 21.8292C142.413 20.9523 143.158 20.2703 144.104 19.7832C145.064 19.2821 146.143 19.0316 147.34 19.0316C148.523 19.0316 149.553 19.2821 150.43 19.7832C151.321 20.2703 151.968 20.9732 152.372 21.8918L149.845 23.2489C149.261 22.2189 148.419 21.7039 147.319 21.7039C146.47 21.7039 145.767 21.9823 145.211 22.5391C144.654 23.0958 144.375 23.8544 144.375 24.8147C144.375 25.7751 144.654 26.5337 145.211 27.0904C145.767 27.6472 146.47 27.9255 147.319 27.9255C148.433 27.9255 149.275 27.4106 149.845 26.3806L152.372 27.7585C151.968 28.6493 151.321 29.3452 150.43 29.8463C149.553 30.3474 148.523 30.5979 147.34 30.5979Z" fill="black"/>
<path d="M160.992 19.0316C162.384 19.0316 163.505 19.4491 164.354 20.2842C165.217 21.1194 165.648 22.3581 165.648 24.0005V30.4309H162.391V24.5016C162.391 23.6108 162.196 22.9496 161.807 22.5182C161.417 22.0728 160.853 21.8501 160.116 21.8501C159.294 21.8501 158.64 22.1076 158.153 22.6226C157.666 23.1236 157.422 23.8752 157.422 24.8774V30.4309H154.165V14.9395H157.422V20.3678C157.854 19.9363 158.376 19.6092 158.988 19.3865C159.601 19.1499 160.269 19.0316 160.992 19.0316Z" fill="black"/>
<path d="M180.122 19.1986V30.4309H177.011V29.1365C176.204 30.1108 175.035 30.5979 173.504 30.5979C172.446 30.5979 171.486 30.3613 170.623 29.8881C169.774 29.4148 169.106 28.7398 168.618 27.8629C168.131 26.986 167.888 25.97 167.888 24.8147C167.888 23.6595 168.131 22.6434 168.618 21.7666C169.106 20.8897 169.774 20.2146 170.623 19.7414C171.486 19.2682 172.446 19.0316 173.504 19.0316C174.937 19.0316 176.058 19.4839 176.865 20.3886V19.1986H180.122ZM174.068 27.9255C174.889 27.9255 175.571 27.6472 176.114 27.0904C176.656 26.5198 176.928 25.7612 176.928 24.8147C176.928 23.8683 176.656 23.1167 176.114 22.5599C175.571 21.9893 174.889 21.7039 174.068 21.7039C173.232 21.7039 172.543 21.9893 172.001 22.5599C171.458 23.1167 171.186 23.8683 171.186 24.8147C171.186 25.7612 171.458 26.5198 172.001 27.0904C172.543 27.6472 173.232 27.9255 174.068 27.9255Z" fill="black"/>
<path d="M183.137 19.1986H186.394V30.4309H183.137V19.1986ZM184.766 17.6327C184.167 17.6327 183.68 17.4588 183.304 17.1108C182.929 16.7628 182.741 16.3314 182.741 15.8164C182.741 15.3014 182.929 14.8699 183.304 14.5219C183.68 14.174 184.167 14 184.766 14C185.364 14 185.852 14.167 186.227 14.5011C186.603 14.8351 186.791 15.2527 186.791 15.7537C186.791 16.2966 186.603 16.7489 186.227 17.1108C185.852 17.4588 185.364 17.6327 184.766 17.6327Z" fill="black"/>
<path d="M196.244 19.0316C197.636 19.0316 198.757 19.4491 199.606 20.2842C200.468 21.1194 200.9 22.3581 200.9 24.0005V30.4309H197.643V24.5016C197.643 23.6108 197.448 22.9496 197.058 22.5182C196.669 22.0728 196.105 21.8501 195.367 21.8501C194.546 21.8501 193.892 22.1076 193.405 22.6226C192.918 23.1236 192.674 23.8752 192.674 24.8774V30.4309H189.417V19.1986H192.528V20.5139C192.959 20.0407 193.495 19.6788 194.136 19.4282C194.776 19.1638 195.479 19.0316 196.244 19.0316Z" fill="black"/>
<path d="M132.901 40.1818V48.9091H131.69L127.254 42.5085H127.173V48.9091H125.857V40.1818H127.075L131.516 46.5909H131.597V40.1818H132.901ZM135.421 48.9091V40.1818H140.833V41.3153H136.738V43.9744H140.446V45.1037H136.738V48.9091H135.421ZM142.622 41.3153V40.1818H149.377V41.3153H146.653V48.9091H145.341V41.3153H142.622Z" fill="#00C868"/>
</svg>
