<svg width="204" height="64" viewBox="0 0 204 64" fill="none" xmlns="http://www.w3.org/2000/svg">
<path d="M56.8396 19.4378V44.5771C56.8396 45.4888 56.0925 46.2065 55.1683 46.2065H19.7181C19.3445 46.2065 19.0102 46.0901 18.735 45.8768C19.2462 46.2065 19.9146 46.2453 20.4849 45.935L42.5454 33.3653C43.0567 33.0744 43.3516 32.5507 43.3712 32.0075C43.3516 31.4644 43.0567 30.9406 42.5454 30.6496L20.4652 18.0606C19.8753 17.7308 19.1675 17.789 18.6562 18.1576C18.9513 17.9249 19.3051 17.789 19.7181 17.789H55.188C56.0925 17.789 56.8396 18.5261 56.8396 19.4378Z" fill="#A20074"/>
<path d="M43.3724 32.0075C43.3528 31.4644 43.0578 30.9407 42.5466 30.6498L20.4663 18.0606C19.8765 17.731 19.1687 17.7892 18.6575 18.1577L18.6378 18.177C18.2839 18.468 18.0479 18.9336 18.0479 19.4185V44.5578C18.0479 45.0622 18.2839 45.5277 18.6575 45.8186C18.4806 45.6828 18.3233 45.5277 18.2053 45.3143L10.3799 32.0075L0.45063 15.0346C-0.00159524 14.2394 0.254005 13.2501 1.06014 12.7845L23.1404 0.214896C23.9465 -0.231248 24.9493 0.0403181 25.4212 0.816222L35.3503 17.7892L43.1561 31.1153C43.3134 31.4063 43.3724 31.6972 43.3724 32.0075Z" fill="#DC24A8"/>
<path d="M43.3715 32.0075C43.3518 32.5507 43.0568 33.0744 42.5456 33.3653L20.4654 45.935C19.8952 46.2453 19.2268 46.2066 18.7156 45.8768C18.6958 45.8573 18.6762 45.838 18.6369 45.8186C18.2633 45.5277 18.0273 45.0621 18.0273 44.5578V19.4378C18.0273 18.9336 18.2437 18.4874 18.6172 18.1965L18.6369 18.177C19.1481 17.8085 19.856 17.7503 20.4457 18.0801L42.5456 30.6498C43.0568 30.9407 43.3518 31.4644 43.3715 32.0075Z" fill="#F2F2F2"/>
<path d="M43.3725 32.0077C43.3921 32.2986 43.3134 32.6089 43.1562 32.8805L35.3504 46.2066L25.4211 63.1795C24.969 63.9749 23.9466 64.227 23.1403 63.7809L1.06014 51.2113C0.254005 50.7651 -0.00159518 49.7564 0.45063 48.9611L10.3799 32.0077L18.1856 18.6815C18.3036 18.4875 18.4608 18.3129 18.6182 18.1965C18.2643 18.4875 18.0283 18.9531 18.0283 19.438V44.5773C18.0283 45.0817 18.2643 45.5472 18.6379 45.8381C18.6575 45.8575 18.6771 45.877 18.7164 45.8963C19.2276 46.2261 19.8962 46.2648 20.4663 45.9545L42.5466 33.3655C43.0578 33.0746 43.3527 32.5507 43.3725 32.0077Z" fill="#C80090"/>
<path d="M121.251 42.581C121.211 42.2088 121.043 41.919 120.748 41.7116C120.455 41.5043 120.074 41.4006 119.606 41.4006C119.276 41.4006 118.993 41.4503 118.758 41.5497C118.522 41.6491 118.341 41.7841 118.216 41.9545C118.091 42.125 118.028 42.3196 118.025 42.5383C118.025 42.7202 118.066 42.8778 118.148 43.0114C118.234 43.1449 118.349 43.2585 118.493 43.3523C118.638 43.4432 118.799 43.5199 118.975 43.5824C119.151 43.6449 119.329 43.6974 119.508 43.7401L120.326 43.9446C120.655 44.0213 120.972 44.125 121.276 44.2557C121.583 44.3864 121.857 44.5511 122.099 44.75C122.343 44.9489 122.536 45.1889 122.678 45.4702C122.82 45.7514 122.891 46.081 122.891 46.4588C122.891 46.9702 122.761 47.4205 122.499 47.8097C122.238 48.196 121.86 48.4986 121.366 48.7173C120.874 48.9332 120.279 49.0412 119.58 49.0412C118.901 49.0412 118.312 48.9361 117.812 48.7258C117.314 48.5156 116.925 48.2088 116.644 47.8054C116.366 47.402 116.215 46.9105 116.192 46.331H117.748C117.77 46.6349 117.864 46.8878 118.029 47.0895C118.194 47.2912 118.408 47.4418 118.672 47.5412C118.939 47.6406 119.238 47.6903 119.567 47.6903C119.911 47.6903 120.212 47.6392 120.471 47.5369C120.732 47.4318 120.937 47.2869 121.084 47.1023C121.232 46.9148 121.307 46.696 121.31 46.446C121.307 46.2187 121.241 46.0312 121.11 45.8835C120.979 45.733 120.796 45.608 120.56 45.5085C120.327 45.4062 120.055 45.3153 119.742 45.2358L118.749 44.9801C118.03 44.7955 117.462 44.5156 117.045 44.1406C116.63 43.7628 116.422 43.2614 116.422 42.6364C116.422 42.1222 116.562 41.6719 116.84 41.2855C117.121 40.8991 117.503 40.5994 117.986 40.3864C118.469 40.1705 119.016 40.0625 119.627 40.0625C120.246 40.0625 120.789 40.1705 121.255 40.3864C121.724 40.5994 122.091 40.8963 122.359 41.277C122.626 41.6548 122.763 42.0895 122.772 42.581H121.251ZM125.117 41.5071V40.1818H132.08V41.5071H129.383V48.9091H127.815V41.5071H125.117ZM142.034 44.5455C142.034 45.4858 141.858 46.2912 141.506 46.9616C141.156 47.6293 140.679 48.1406 140.074 48.4957C139.472 48.8508 138.788 49.0284 138.024 49.0284C137.26 49.0284 136.575 48.8508 135.97 48.4957C135.368 48.1378 134.891 47.625 134.538 46.9574C134.189 46.2869 134.014 45.483 134.014 44.5455C134.014 43.6051 134.189 42.8011 134.538 42.1335C134.891 41.4631 135.368 40.9503 135.97 40.5952C136.575 40.2401 137.26 40.0625 138.024 40.0625C138.788 40.0625 139.472 40.2401 140.074 40.5952C140.679 40.9503 141.156 41.4631 141.506 42.1335C141.858 42.8011 142.034 43.6051 142.034 44.5455ZM140.445 44.5455C140.445 43.8835 140.341 43.3253 140.134 42.8707C139.929 42.4133 139.645 42.0682 139.281 41.8352C138.918 41.5994 138.499 41.4815 138.024 41.4815C137.55 41.4815 137.131 41.5994 136.767 41.8352C136.403 42.0682 136.118 42.4133 135.911 42.8707C135.706 43.3253 135.604 43.8835 135.604 44.5455C135.604 45.2074 135.706 45.767 135.911 46.2244C136.118 46.679 136.403 47.0241 136.767 47.2599C137.131 47.4929 137.55 47.6094 138.024 47.6094C138.499 47.6094 138.918 47.4929 139.281 47.2599C139.645 47.0241 139.929 46.679 140.134 46.2244C140.341 45.767 140.445 45.2074 140.445 44.5455ZM144.729 48.9091V40.1818H148.001C148.672 40.1818 149.234 40.2983 149.689 40.5312C150.146 40.7642 150.492 41.0909 150.725 41.5114C150.96 41.929 151.078 42.4162 151.078 42.973C151.078 43.5327 150.959 44.0185 150.72 44.4304C150.484 44.8395 150.136 45.1562 149.676 45.3807C149.216 45.6023 148.651 45.7131 147.98 45.7131H145.649V44.4006H147.767C148.159 44.4006 148.48 44.3466 148.73 44.2386C148.98 44.1278 149.165 43.9673 149.284 43.7571C149.406 43.544 149.467 43.2827 149.467 42.973C149.467 42.6633 149.406 42.3991 149.284 42.1804C149.162 41.9588 148.976 41.7912 148.726 41.6776C148.476 41.5611 148.153 41.5028 147.759 41.5028H146.31V48.9091H144.729ZM149.237 44.9545L151.398 48.9091H149.634L147.511 44.9545H149.237ZM153.733 48.9091V40.1818H159.41V41.5071H155.314V43.8764H159.116V45.2017H155.314V47.5838H159.444V48.9091H153.733Z" fill="#C80090"/>
<path d="M91 14H87.1143L82.4999 21.5528L77.8857 14H74V31H77.8857V21.1157L82.2814 28.3286H82.7186L87.1143 21.1157V31H91V14Z" fill="black"/>
<path d="M105.759 25.5747H96.2809C96.4178 26.4105 96.7816 27.0769 97.3724 27.5741C97.9704 28.064 98.7306 28.309 99.6528 28.309C100.755 28.309 101.703 27.9235 102.495 27.1526L104.981 28.3198C104.361 29.1988 103.619 29.8508 102.754 30.2759C101.89 30.6938 100.863 30.9027 99.6744 30.9027C97.8299 30.9027 96.3277 30.3227 95.1677 29.1627C94.0077 27.9955 93.4277 26.5366 93.4277 24.7858C93.4277 22.9917 94.0041 21.5039 95.1569 20.3223C96.3169 19.1335 97.7687 18.5391 99.5123 18.5391C101.364 18.5391 102.87 19.1335 104.03 20.3223C105.19 21.5039 105.77 23.0674 105.77 25.0127L105.759 25.5747ZM102.798 23.2511C102.603 22.5955 102.218 22.0623 101.641 21.6516C101.072 21.2409 100.409 21.0356 99.6528 21.0356C98.8314 21.0356 98.1109 21.2662 97.4913 21.7273C97.1022 22.0155 96.742 22.5234 96.4106 23.2511H102.798Z" fill="black"/>
<path d="M116.847 14.3026H119.787V30.6001H116.847V29.3573C116.271 29.9049 115.691 30.3011 115.107 30.5461C114.531 30.7839 113.904 30.9027 113.227 30.9027C111.707 30.9027 110.392 30.3155 109.282 29.1411C108.173 27.9595 107.618 26.4933 107.618 24.7425C107.618 22.9269 108.155 21.4391 109.228 20.2791C110.302 19.1191 111.606 18.5391 113.14 18.5391C113.846 18.5391 114.509 18.6724 115.129 18.939C115.749 19.2056 116.321 19.6054 116.847 20.1386V14.3026ZM113.746 21.2626C112.831 21.2626 112.07 21.5868 111.465 22.2352C110.86 22.8765 110.557 23.7014 110.557 24.7101C110.557 25.726 110.864 26.5618 111.476 27.2174C112.096 27.8731 112.856 28.2009 113.756 28.2009C114.686 28.2009 115.457 27.8803 116.069 27.239C116.682 26.5906 116.988 25.744 116.988 24.6993C116.988 23.6762 116.682 22.8476 116.069 22.2136C115.457 21.5796 114.682 21.2626 113.746 21.2626Z" fill="black"/>
<path d="M123.926 14C124.445 14 124.888 14.1873 125.255 14.562C125.63 14.9366 125.817 15.3905 125.817 15.9237C125.817 16.4497 125.634 16.9 125.266 17.2746C124.899 17.6421 124.459 17.8258 123.948 17.8258C123.422 17.8258 122.971 17.6385 122.597 17.2638C122.229 16.882 122.046 16.4209 122.046 15.8805C122.046 15.3617 122.229 14.9186 122.597 14.5512C122.964 14.1837 123.407 14 123.926 14ZM122.446 18.8417H125.407V30.6001H122.446V18.8417Z" fill="black"/>
<path d="M136.776 18.8417H139.716V30.6001H136.776V29.3573C136.2 29.9049 135.62 30.3011 135.036 30.5461C134.46 30.7839 133.833 30.9027 133.156 30.9027C131.635 30.9027 130.321 30.3155 129.211 29.1411C128.101 27.9595 127.547 26.4933 127.547 24.7425C127.547 22.9269 128.083 21.4391 129.157 20.2791C130.23 19.1191 131.535 18.5391 133.069 18.5391C133.775 18.5391 134.438 18.6724 135.058 18.939C135.677 19.2056 136.25 19.6054 136.776 20.1386V18.8417ZM133.674 21.2626C132.759 21.2626 131.999 21.5868 131.394 22.2352C130.789 22.8765 130.486 23.7014 130.486 24.7101C130.486 25.726 130.792 26.5618 131.405 27.2174C132.024 27.8731 132.785 28.2009 133.685 28.2009C134.615 28.2009 135.386 27.8803 135.998 27.239C136.61 26.5906 136.917 25.744 136.917 24.6993C136.917 23.6762 136.61 22.8476 135.998 22.2136C135.386 21.5796 134.611 21.2626 133.674 21.2626Z" fill="black"/>
<path d="M157.634 17.5016L155.516 19.5226C154.075 18.0023 152.454 17.2422 150.653 17.2422C149.133 17.2422 147.85 17.761 146.805 18.7985C145.768 19.836 145.249 21.1149 145.249 22.6351C145.249 23.6942 145.48 24.6345 145.941 25.4558C146.402 26.2772 147.054 26.922 147.897 27.3903C148.74 27.8587 149.677 28.0928 150.707 28.0928C151.586 28.0928 152.389 27.9307 153.117 27.6065C153.845 27.2751 154.644 26.677 155.516 25.8125L157.569 27.9523C156.395 29.0979 155.286 29.894 154.241 30.3407C153.196 30.7802 152.004 31 150.664 31C148.192 31 146.168 30.2183 144.59 28.6548C143.019 27.0841 142.234 25.074 142.234 22.6243C142.234 21.0392 142.59 19.6306 143.304 18.3986C144.024 17.1666 145.051 16.1759 146.384 15.4266C147.724 14.6773 149.165 14.3026 150.707 14.3026C152.018 14.3026 153.279 14.58 154.489 15.1348C155.707 15.6896 156.755 16.4785 157.634 17.5016Z" fill="black"/>
<path d="M159.98 14.3026H162.908V20.0305C163.485 19.5334 164.065 19.1623 164.648 18.9174C165.232 18.6652 165.823 18.5391 166.421 18.5391C167.588 18.5391 168.571 18.9426 169.371 19.7495C170.056 20.4484 170.398 21.4751 170.398 22.8296V30.6001H167.491V25.445C167.491 24.0833 167.426 23.1611 167.296 22.6783C167.166 22.1956 166.943 21.8353 166.626 21.5976C166.316 21.3598 165.931 21.2409 165.47 21.2409C164.872 21.2409 164.357 21.4391 163.924 21.8353C163.499 22.2316 163.204 22.772 163.038 23.4565C162.952 23.8095 162.908 24.6164 162.908 25.8773V30.6001H159.98V14.3026Z" fill="black"/>
<path d="M181.951 18.8417H184.891V30.6001H181.951V29.3573C181.375 29.9049 180.795 30.3011 180.211 30.5461C179.635 30.7839 179.008 30.9027 178.33 30.9027C176.81 30.9027 175.495 30.3155 174.386 29.1411C173.276 27.9595 172.721 26.4933 172.721 24.7425C172.721 22.9269 173.258 21.4391 174.332 20.2791C175.405 19.1191 176.709 18.5391 178.244 18.5391C178.95 18.5391 179.613 18.6724 180.233 18.939C180.852 19.2056 181.425 19.6054 181.951 20.1386V18.8417ZM178.849 21.2626C177.934 21.2626 177.174 21.5868 176.569 22.2352C175.964 22.8765 175.661 23.7014 175.661 24.7101C175.661 25.726 175.967 26.5618 176.58 27.2174C177.199 27.8731 177.959 28.2009 178.86 28.2009C179.789 28.2009 180.56 27.8803 181.173 27.239C181.785 26.5906 182.091 25.744 182.091 24.6993C182.091 23.6762 181.785 22.8476 181.173 22.2136C180.56 21.5796 179.786 21.2626 178.849 21.2626Z" fill="black"/>
<path d="M189.03 14C189.549 14 189.992 14.1873 190.359 14.562C190.734 14.9366 190.921 15.3905 190.921 15.9237C190.921 16.4497 190.737 16.9 190.37 17.2746C190.002 17.6421 189.563 17.8258 189.051 17.8258C188.525 17.8258 188.075 17.6385 187.7 17.2638C187.333 16.882 187.149 16.4209 187.149 15.8805C187.149 15.3617 187.333 14.9186 187.7 14.5512C188.068 14.1837 188.511 14 189.03 14ZM187.549 18.8417H190.51V30.6001H187.549V18.8417Z" fill="black"/>
<path d="M193.191 18.8417H196.13V20.0413C196.8 19.4793 197.405 19.0903 197.946 18.8741C198.493 18.6508 199.052 18.5391 199.621 18.5391C200.788 18.5391 201.779 18.9462 202.593 19.7603C203.277 20.452 203.62 21.4751 203.62 22.8296V30.6001H200.702V25.445C200.702 24.0401 200.637 23.107 200.507 22.6459C200.385 22.1848 200.165 21.8353 199.848 21.5976C199.538 21.3526 199.153 21.2301 198.692 21.2301C198.094 21.2301 197.578 21.4319 197.146 21.8353C196.721 22.2316 196.426 22.7828 196.26 23.4889C196.173 23.8563 196.13 24.6525 196.13 25.8773V30.6001H193.191V18.8417Z" fill="black"/>
</svg>
