<svg width="230" height="65" viewBox="0 0 230 65" fill="none" xmlns="http://www.w3.org/2000/svg">
<path d="M85.2261 30.3433V39.5826C85.2261 40.2087 85.3675 40.6631 85.6502 40.9458C85.9532 41.2083 86.4581 41.3396 87.1649 41.3396H89.2854V44.2174H86.559C85.004 44.2174 83.8125 43.8539 82.9845 43.1269C82.1565 42.3999 81.7425 41.2184 81.7425 39.5826V30.3433H79.7734V27.5261H81.7425V23.376H85.2261V27.5261H89.2854V30.3433H85.2261Z" fill="white"/>
<path d="M95.6187 29.9495C96.1236 29.1013 96.79 28.445 97.618 27.9805C98.4662 27.4958 99.4659 27.2534 100.617 27.2534V30.828H99.7385C98.3855 30.828 97.3555 31.1713 96.6487 31.8579C95.962 32.5446 95.6187 33.7361 95.6187 35.4325V44.2174H92.1653V27.5261H95.6187V29.9495Z" fill="white"/>
<path d="M102.337 35.796C102.337 34.1198 102.681 32.6355 103.367 31.343C104.074 30.0505 105.023 29.0508 106.215 28.344C107.427 27.6169 108.759 27.2534 110.213 27.2534C111.526 27.2534 112.667 27.516 113.637 28.041C114.626 28.5459 115.414 29.1821 115.999 29.9495V27.5261H119.483V44.2174H115.999V41.7334C115.414 42.521 114.616 43.1774 113.606 43.7024C112.597 44.2275 111.445 44.4901 110.153 44.4901C108.719 44.4901 107.406 44.1265 106.215 43.3995C105.023 42.6523 104.074 41.6223 103.367 40.3096C102.681 38.9768 102.337 37.4722 102.337 35.796ZM115.999 35.8566C115.999 34.7055 115.757 33.7058 115.272 32.8576C114.808 32.0094 114.192 31.3632 113.425 30.9189C112.657 30.4746 111.829 30.2524 110.941 30.2524C110.052 30.2524 109.224 30.4746 108.456 30.9189C107.689 31.343 107.063 31.9791 106.578 32.8273C106.114 33.6553 105.882 34.6449 105.882 35.796C105.882 36.9471 106.114 37.9569 106.578 38.8253C107.063 39.6937 107.689 40.3601 108.456 40.8246C109.244 41.2689 110.072 41.4911 110.941 41.4911C111.829 41.4911 112.657 41.2689 113.425 40.8246C114.192 40.3803 114.808 39.7341 115.272 38.8859C115.757 38.0175 115.999 37.0077 115.999 35.8566Z" fill="white"/>
<path d="M122.565 35.796C122.565 34.1198 122.908 32.6355 123.595 31.343C124.302 30.0505 125.251 29.0508 126.442 28.344C127.654 27.6169 128.997 27.2534 130.471 27.2534C131.562 27.2534 132.632 27.4958 133.682 27.9805C134.753 28.445 135.601 29.071 136.227 29.8586V21.8007H139.711V44.2174H136.227V41.7031C135.662 42.5109 134.874 43.1774 133.864 43.7024C132.875 44.2275 131.734 44.4901 130.441 44.4901C128.987 44.4901 127.654 44.1265 126.442 43.3995C125.251 42.6523 124.302 41.6223 123.595 40.3096C122.908 38.9768 122.565 37.4722 122.565 35.796ZM136.227 35.8566C136.227 34.7055 135.985 33.7058 135.5 32.8576C135.035 32.0094 134.42 31.3632 133.652 30.9189C132.885 30.4746 132.057 30.2524 131.168 30.2524C130.279 30.2524 129.451 30.4746 128.684 30.9189C127.917 31.343 127.291 31.9791 126.806 32.8273C126.341 33.6553 126.109 34.6449 126.109 35.796C126.109 36.9471 126.341 37.9569 126.806 38.8253C127.291 39.6937 127.917 40.3601 128.684 40.8246C129.472 41.2689 130.3 41.4911 131.168 41.4911C132.057 41.4911 132.885 41.2689 133.652 40.8246C134.42 40.3803 135.035 39.7341 135.5 38.8859C135.985 38.0175 136.227 37.0077 136.227 35.8566Z" fill="white"/>
<path d="M159.241 35.4628C159.241 36.0888 159.201 36.6543 159.12 37.1592H146.367C146.468 38.4921 146.963 39.5624 147.851 40.3702C148.74 41.178 149.831 41.5819 151.123 41.5819C152.981 41.5819 154.294 40.8044 155.061 39.2494H158.787C158.282 40.7842 157.363 42.0464 156.03 43.036C154.718 44.0054 153.082 44.4901 151.123 44.4901C149.528 44.4901 148.094 44.1366 146.821 43.4298C145.569 42.7028 144.58 41.693 143.853 40.4005C143.146 39.0878 142.792 37.5732 142.792 35.8566C142.792 34.14 143.136 32.6355 143.822 31.343C144.529 30.0303 145.509 29.0205 146.761 28.3137C148.033 27.6069 149.487 27.2534 151.123 27.2534C152.698 27.2534 154.102 27.5968 155.334 28.2834C156.566 28.97 157.525 29.9394 158.212 31.1915C158.898 32.4234 159.241 33.8472 159.241 35.4628ZM155.637 34.3723C155.616 33.1 155.162 32.0801 154.273 31.3127C153.385 30.5453 152.284 30.1615 150.972 30.1615C149.78 30.1615 148.76 30.5453 147.912 31.3127C147.064 32.0599 146.559 33.0798 146.397 34.3723H155.637Z" fill="white"/>
<path d="M163.791 39.522C165.73 37.8458 167.255 36.4726 168.365 35.4022C169.496 34.3117 170.435 33.1807 171.183 32.0094C171.93 30.8381 172.303 29.6668 172.303 28.4954C172.303 27.2837 172.011 26.3345 171.425 25.6479C170.859 24.9613 169.961 24.618 168.729 24.618C167.537 24.618 166.608 25.0017 165.942 25.7691C165.296 26.5163 164.952 27.5261 164.912 28.7984H161.58C161.64 26.4961 162.327 24.7391 163.64 23.5274C164.973 22.2955 166.659 21.6796 168.699 21.6796C170.9 21.6796 172.616 22.2854 173.848 23.4971C175.1 24.7088 175.726 26.3245 175.726 28.344C175.726 29.798 175.353 31.2016 174.606 32.5547C173.879 33.8876 173 35.0892 171.97 36.1595C170.96 37.2097 169.668 38.4315 168.093 39.825L166.73 41.0367H176.332V43.9145H161.61V41.4002L163.791 39.522Z" fill="white"/>
<path d="M178.639 39.6129V37.0077L188.817 22.4066H192.998V36.6139H195.815V39.6129H192.998V44.2174H189.605V39.6129H178.639ZM189.757 25.9205L182.607 36.6139H189.757V25.9205Z" fill="white"/>
<path d="M200.222 44.4295C199.595 44.4295 199.07 44.2174 198.646 43.7933C198.222 43.3692 198.01 42.8441 198.01 42.2181C198.01 41.592 198.222 41.067 198.646 40.6429C199.07 40.2188 199.595 40.0067 200.222 40.0067C200.827 40.0067 201.342 40.2188 201.766 40.6429C202.191 41.067 202.403 41.592 202.403 42.2181C202.403 42.8441 202.191 43.3692 201.766 43.7933C201.342 44.2174 200.827 44.4295 200.222 44.4295Z" fill="white"/>
<path d="M204.681 35.796C204.681 34.1198 205.024 32.6355 205.711 31.343C206.418 30.0505 207.367 29.0508 208.558 28.344C209.77 27.6169 211.103 27.2534 212.557 27.2534C213.87 27.2534 215.011 27.516 215.98 28.041C216.97 28.5459 217.757 29.1821 218.343 29.9495V27.5261H221.827V44.2174H218.343V41.7334C217.757 42.521 216.96 43.1774 215.95 43.7024C214.94 44.2275 213.789 44.4901 212.497 44.4901C211.063 44.4901 209.75 44.1265 208.558 43.3995C207.367 42.6523 206.418 41.6223 205.711 40.3096C205.024 38.9768 204.681 37.4722 204.681 35.796ZM218.343 35.8566C218.343 34.7055 218.101 33.7058 217.616 32.8576C217.152 32.0094 216.536 31.3632 215.768 30.9189C215.001 30.4746 214.173 30.2524 213.284 30.2524C212.396 30.2524 211.568 30.4746 210.8 30.9189C210.033 31.343 209.407 31.9791 208.922 32.8273C208.457 33.6553 208.225 34.6449 208.225 35.796C208.225 36.9471 208.457 37.9569 208.922 38.8253C209.407 39.6937 210.033 40.3601 210.8 40.8246C211.588 41.2689 212.416 41.4911 213.284 41.4911C214.173 41.4911 215.001 41.2689 215.768 40.8246C216.536 40.3803 217.152 39.7341 217.616 38.8859C218.101 38.0175 218.343 37.0077 218.343 35.8566Z" fill="white"/>
<path d="M227.817 25.3147C227.191 25.3147 226.666 25.1026 226.241 24.6785C225.817 24.2544 225.605 23.7294 225.605 23.1033C225.605 22.4773 225.817 21.9522 226.241 21.5281C226.666 21.104 227.191 20.8919 227.817 20.8919C228.423 20.8919 228.938 21.104 229.362 21.5281C229.786 21.9522 229.998 22.4773 229.998 23.1033C229.998 23.7294 229.786 24.2544 229.362 24.6785C228.938 25.1026 228.423 25.3147 227.817 25.3147ZM229.513 27.5261V44.2174H226.06V27.5261H229.513Z" fill="white"/>
<path d="M16.977 39.522C18.9157 37.8458 20.4405 36.4725 21.5512 35.4022C22.6822 34.3116 23.6212 33.1807 24.3685 32.0094C25.1157 30.8381 25.4893 29.6667 25.4893 28.4954C25.4893 27.2837 25.1965 26.3345 24.6108 25.6479C24.0453 24.9613 23.1466 24.6179 21.9147 24.6179C20.7232 24.6179 19.7942 25.0016 19.1278 25.7691C18.4815 26.5163 18.1382 27.5261 18.0978 28.7984H14.7656C14.8262 26.4961 15.5128 24.7391 16.8255 23.5274C18.1584 22.2955 19.8447 21.6795 21.8844 21.6795C24.0857 21.6795 25.8023 22.2854 27.0342 23.4971C28.2863 24.7088 28.9124 26.3244 28.9124 28.344C28.9124 29.798 28.5388 31.2016 27.7915 32.5547C27.0645 33.8875 26.186 35.0892 25.1561 36.1595C24.1463 37.2097 22.8538 38.4315 21.2786 39.8249L19.9154 41.0367H29.5182V43.9145H14.7959V41.4002L16.977 39.522Z" fill="url(#paint0_linear_84_2584)"/>
<path d="M30.6133 39.6129V37.0077L40.7917 22.4066H44.9721V36.6139H47.7893V39.6129H44.9721V44.2174H41.5793V39.6129H30.6133ZM41.7307 25.9205L34.5816 36.6139H41.7307V25.9205Z" fill="url(#paint1_linear_84_2584)"/>
<path fill-rule="evenodd" clip-rule="evenodd" d="M59.3326 31.8826C58.7428 32.0379 58.1387 31.6857 57.9833 31.0958C55.9293 23.2959 50.9922 17.9508 44.5989 15.3532C38.1858 12.7475 30.2134 12.872 22.0876 16.2282C21.5238 16.4611 20.878 16.1928 20.6452 15.629C20.4123 15.0653 20.6806 14.4195 21.2444 14.1866C29.8147 10.6468 38.3949 10.4482 45.4304 13.3068C52.4857 16.1734 57.8932 22.0799 60.1194 30.5333C60.2747 31.1232 59.9225 31.7272 59.3326 31.8826Z" fill="url(#paint2_angular_84_2584)"/>
<path fill-rule="evenodd" clip-rule="evenodd" d="M14.3741 19.3106C14.7107 19.8193 14.5712 20.5045 14.0625 20.8411C5.99436 26.1798 2.72286 32.4546 2.60663 38.1583C2.48991 43.8863 5.54692 49.2913 10.6473 52.9047C20.7722 60.0778 39.0861 60.1499 55.2347 40.4317C55.6212 39.9598 56.3171 39.8906 56.789 40.2771C57.2609 40.6635 57.3301 41.3594 56.9436 41.8313C40.2208 62.2505 20.636 62.6883 9.37035 54.7071C3.77541 50.7433 0.264197 44.6911 0.398238 38.1133C0.532772 31.5113 4.33103 24.6318 12.8436 18.999C13.3523 18.6624 14.0375 18.8019 14.3741 19.3106Z" fill="url(#paint3_angular_84_2584)"/>
<path fill-rule="evenodd" clip-rule="evenodd" d="M52.4002 39.3305C53.0079 39.3827 53.4582 39.9178 53.4059 40.5255C52.5733 50.202 49.6889 56.6086 45.5763 60.3771C41.4393 64.168 36.2254 65.1385 31.0964 64.279C25.9883 63.423 20.9117 60.7515 16.8599 57.1716C12.8131 53.5961 9.69465 49.03 8.62882 44.3005C8.49473 43.7055 8.86839 43.1144 9.46343 42.9803C10.0585 42.8462 10.6495 43.2199 10.7836 43.8149C11.7203 47.9714 14.5185 52.1553 18.3225 55.5163C22.1215 58.8729 26.83 61.3244 31.4615 62.1005C36.0721 62.8731 40.5523 61.9848 44.084 58.7486C47.6402 55.4899 50.3994 49.7009 51.2052 40.3361C51.2575 39.7284 51.7925 39.2782 52.4002 39.3305Z" fill="url(#paint4_angular_84_2584)"/>
<path d="M12.2268 41.3775C12.2268 42.9459 10.9553 44.2174 9.38683 44.2174C7.81837 44.2174 6.54688 42.9459 6.54688 41.3775C6.54688 39.809 7.81837 38.5375 9.38683 38.5375C10.9553 38.5375 12.2268 39.809 12.2268 41.3775Z" fill="#2F0DFF"/>
<path fill-rule="evenodd" clip-rule="evenodd" d="M15.1068 8.56482C17.7563 6.75779 20.7346 5.49878 23.8716 4.86011C27.0087 4.22143 30.2422 4.21575 33.3873 4.84302C36.5325 5.47028 39.5272 6.71808 42.2007 8.51433C44.8742 10.3106 47.1742 12.6201 48.9701 15.3104C50.7659 18.0008 52.0228 21.0197 52.6692 24.1949C52.7909 24.7926 52.405 25.3758 51.8073 25.4975C51.2096 25.6192 50.6265 25.2333 50.5048 24.6356C49.9153 21.7404 48.7694 18.9884 47.1329 16.5368C45.4964 14.0851 43.4017 11.9823 40.9689 10.3478C38.5361 8.71332 35.813 7.57915 32.9553 7.00921C30.0976 6.43928 27.1608 6.44462 24.3123 7.02456C21.4638 7.60449 18.7587 8.74781 16.3513 10.3897C13.9439 12.0315 11.881 14.1401 10.281 16.5956C8.6809 19.0512 7.57503 21.8057 7.02733 24.702C6.47963 27.5983 6.50093 30.5793 7.09038 33.4745C7.21206 34.0722 6.82618 34.6553 6.22848 34.777C5.63079 34.8987 5.04761 34.5128 4.92593 33.9151C4.27947 30.7399 4.25592 27.4699 4.85695 24.2916C5.45798 21.1132 6.67195 18.0883 8.43035 15.3898C10.1888 12.6912 12.4572 10.3718 15.1068 8.56482Z" fill="url(#paint5_angular_84_2584)"/>
<defs>
<linearGradient id="paint0_linear_84_2584" x1="13.1762" y1="20.8667" x2="49.5229" y2="45.4049" gradientUnits="userSpaceOnUse">
<stop stop-color="#2F0DFF"/>
<stop offset="1" stop-color="#EB00FF"/>
</linearGradient>
<linearGradient id="paint1_linear_84_2584" x1="13.1762" y1="20.8667" x2="49.5229" y2="45.4049" gradientUnits="userSpaceOnUse">
<stop stop-color="#2F0DFF"/>
<stop offset="1" stop-color="#EB00FF"/>
</linearGradient>
<radialGradient id="paint2_angular_84_2584" cx="0" cy="0" r="1" gradientUnits="userSpaceOnUse" gradientTransform="translate(39.0881 23.0111) rotate(22.249) scale(21.5684 13.5111)">
<stop offset="0.478015" stop-color="#060028" stop-opacity="0"/>
<stop offset="0.987794" stop-color="#EB00FF"/>
</radialGradient>
<radialGradient id="paint3_angular_84_2584" cx="0" cy="0" r="1" gradientUnits="userSpaceOnUse" gradientTransform="translate(27.6804 34.8752) rotate(-69.0595) scale(21.6231 28.3179)">
<stop offset="0.197972" stop-color="#EB00FF"/>
<stop offset="0.983388" stop-color="#060028" stop-opacity="0"/>
</radialGradient>
<radialGradient id="paint4_angular_84_2584" cx="0" cy="0" r="1" gradientUnits="userSpaceOnUse" gradientTransform="translate(31.9161 45.5085) rotate(177.149) scale(21.8729 18.2929)">
<stop offset="0.515935" stop-color="#060028" stop-opacity="0"/>
<stop offset="0.990018" stop-color="#2F0DFF"/>
</radialGradient>
<radialGradient id="paint5_angular_84_2584" cx="0" cy="0" r="1" gradientUnits="userSpaceOnUse" gradientTransform="translate(23.038 17.3868) rotate(63.7286) scale(13.0123 25.6606)">
<stop offset="0.149754" stop-color="#2F0DFF"/>
<stop offset="0.915519" stop-color="#150E41" stop-opacity="0"/>
</radialGradient>
</defs>
</svg>
