<svg width="72" height="72" viewBox="0 0 72 72" fill="none" xmlns="http://www.w3.org/2000/svg">
<g id="Icon/Outline/browser">
<path id="Mask" fill-rule="evenodd" clip-rule="evenodd" d="M20.4444 20.4449C20.4444 18.7245 21.8382 17.3338 23.5556 17.3338C25.2729 17.3338 26.6667 18.7245 26.6667 20.4449C26.6667 22.1654 25.2729 23.5561 23.5556 23.5561C21.8382 23.5561 20.4444 22.1654 20.4444 20.4449ZM32.8888 20.4449C32.8888 18.7245 34.2826 17.3338 35.9999 17.3338C37.7173 17.3338 39.1111 18.7245 39.1111 20.4449C39.1111 22.1654 37.7173 23.5561 35.9999 23.5561C34.2826 23.5561 32.8888 22.1654 32.8888 20.4449ZM14.2222 26.6669V17.3336C14.2222 15.6162 15.6191 14.2224 17.3333 14.2224H54.6666C56.3809 14.2224 57.7778 15.6162 57.7778 17.3336V26.6669H14.2222ZM57.7778 54.6666C57.7778 56.3839 56.3809 57.7777 54.6666 57.7777H17.3333C15.6191 57.7777 14.2222 56.3839 14.2222 54.6666V32.8888H57.7778V54.6666ZM54.6667 8H17.3333C12.1876 8 8 12.1876 8 17.3333V26.6667V32.8889V54.6667C8 59.8124 12.1876 64 17.3333 64H54.6667C59.8124 64 64 59.8124 64 54.6667V32.8889V26.6667V17.3333C64 12.1876 59.8124 8 54.6667 8Z" fill="#3636EC"/>
</g>
</svg>
