<svg width="48" height="48" viewBox="0 0 48 48" fill="none" xmlns="http://www.w3.org/2000/svg">
<path fill-rule="evenodd" clip-rule="evenodd" d="M26.4 7.2C26.4 8.5272 25.3248 9.6 24 9.6C22.6752 9.6 21.6 8.5272 21.6 7.2V2.4C21.6 1.0728 22.6752 0 24 0C25.3248 0 26.4 1.0728 26.4 2.4V7.2ZM26.4 32.3035C26.4 31.4467 26.8584 30.6523 27.6024 30.2227C29.8224 28.9483 31.2 26.5627 31.2 23.9995C31.2 20.0299 27.9696 16.7995 24 16.7995C20.0304 16.7995 16.8 20.0299 16.8 23.9995C16.8 26.5627 18.1776 28.9483 20.3976 30.2227C21.1416 30.6523 21.6 31.4467 21.6 32.3035V43.1995H26.4V32.3035ZM12 23.9994C12 17.3826 17.3832 11.9994 24 11.9994C30.6168 11.9994 36 17.3826 36 23.9994C36 27.789 34.1904 31.3482 31.2 33.5898V43.1994C31.2 45.8466 29.0472 47.9994 26.4 47.9994H21.6C18.9528 47.9994 16.8 45.8466 16.8 43.1994V33.5898C13.8072 31.3482 12 27.789 12 23.9994ZM45.6 21.6H40.8C39.4728 21.6 38.4 22.6728 38.4 24C38.4 25.3272 39.4728 26.4 40.8 26.4H45.6C46.9272 26.4 48 25.3272 48 24C48 22.6728 46.9272 21.6 45.6 21.6ZM2.4 21.6H7.2C8.5248 21.6 9.6 22.6728 9.6 24C9.6 25.3272 8.5248 26.4 7.2 26.4H2.4C1.0752 26.4 0 25.3272 0 24C0 22.6728 1.0752 21.6 2.4 21.6ZM13.5838 10.6031L10.1302 7.26712C9.17736 6.34792 7.66056 6.37672 6.73656 7.32951C5.81496 8.27991 5.84136 9.80151 6.79416 10.7231L10.2478 14.0567C10.7158 14.5079 11.3158 14.7311 11.9158 14.7311C12.5446 14.7311 13.171 14.4839 13.6414 13.9967C14.563 13.0463 14.5366 11.5247 13.5838 10.6031ZM37.87 7.27148C38.8204 6.35228 40.3468 6.37868 41.2612 7.32908C42.1828 8.27948 42.1564 9.80108 41.2036 10.7203L37.75 14.0563C37.2868 14.5051 36.6844 14.7307 36.0844 14.7307C35.4556 14.7307 34.8268 14.4835 34.3588 13.9963C33.4372 13.0459 33.4636 11.5243 34.4164 10.6051L37.87 7.27148Z" fill="#3636EC"/>
</svg>
