<svg width="72" height="72" viewBox="0 0 72 72" fill="none" xmlns="http://www.w3.org/2000/svg">
<g id="Icon/Outline/clock">
<path id="Mask" fill-rule="evenodd" clip-rule="evenodd" d="M47.2001 33.2H38.8001V24.8C38.8001 23.2516 37.5457 22 36.0001 22C34.4545 22 33.2001 23.2516 33.2001 24.8V36C33.2001 37.5484 34.4545 38.8 36.0001 38.8H47.2001C48.7485 38.8 50.0001 37.5484 50.0001 36C50.0001 34.4516 48.7485 33.2 47.2001 33.2ZM35.9997 58.3997C23.6489 58.3997 13.5997 48.3505 13.5997 35.9997C13.5997 23.6489 23.6489 13.5997 35.9997 13.5997C48.3505 13.5997 58.3997 23.6489 58.3997 35.9997C58.3997 48.3505 48.3505 58.3997 35.9997 58.3997ZM36 8C20.5608 8 8 20.5608 8 36C8 51.4392 20.5608 64 36 64C51.4392 64 64 51.4392 64 36C64 20.5608 51.4392 8 36 8Z" fill="#3636EC"/>
</g>
</svg>
