<svg width="48" height="48" viewBox="0 0 48 48" fill="none" xmlns="http://www.w3.org/2000/svg">
<path fill-rule="evenodd" clip-rule="evenodd" d="M19.1961 28.8H11.9961C10.6713 28.8 9.5961 27.7248 9.5961 26.4C9.5961 25.0752 10.6713 24 11.9961 24H19.1961C20.5209 24 21.5961 25.0752 21.5961 26.4C21.5961 27.7248 20.5209 28.8 19.1961 28.8ZM9.5961 36C9.5961 34.6752 10.6713 33.6 11.9961 33.6H26.3961C27.7233 33.6 28.7961 34.6752 28.7961 36C28.7961 37.3248 27.7233 38.4 26.3961 38.4H11.9961C10.6713 38.4 9.5961 37.3248 9.5961 36ZM32.2656 43.2H6.132C5.3976 43.2 4.8 42.6624 4.8 42V6C4.8 5.3376 5.3976 4.8 6.132 4.8H19.2V12.36C19.2 16.1328 22.1208 19.2 25.7136 19.2H33.6V42C33.6 42.6624 33.0024 43.2 32.2656 43.2ZM24 7.1475L30.5808 14.4003H25.7136C24.768 14.4003 24 13.4859 24 12.3603V7.1475ZM37.776 15.1872L24.7104 0.7872C24.2544 0.2856 23.6112 0 22.932 0H6.132C2.7504 0 0 2.6928 0 6V42C0 45.3072 2.7504 48 6.132 48H32.2656C35.6472 48 38.4 45.3072 38.4 42V16.8C38.4 16.2024 38.1768 15.6288 37.776 15.1872Z" fill="#3636EC"/>
</svg>
