<svg width="72" height="72" viewBox="0 0 72 72" fill="none" xmlns="http://www.w3.org/2000/svg">
<path d="M36 64C20.5364 64 8 51.4636 8 36C8 20.5364 20.5364 8 36 8C51.4636 8 64 20.5364 64 36C64 51.4636 51.4636 64 36 64ZM36 58.9091C48.6522 58.9091 58.9091 48.6522 58.9091 36C58.9091 23.3478 48.6522 13.0909 36 13.0909C23.3478 13.0909 13.0909 23.3478 13.0909 36C13.0909 48.6522 23.3478 58.9091 36 58.9091ZM38.5455 49.6844V52.5455C38.5455 53.2206 38.2773 53.868 37.7999 54.3454C37.3225 54.8227 36.6751 55.0909 36 55.0909C35.3249 55.0909 34.6775 54.8227 34.2001 54.3454C33.7227 53.868 33.4545 53.2206 33.4545 52.5455V49.7085C32.2224 49.4157 31.0471 48.9211 29.9762 48.2449C28.9249 47.5882 28.1715 46.9124 27.7196 46.3956C27.2796 45.8867 27.0589 45.2243 27.1058 44.5531C27.1528 43.8819 27.4635 43.2566 27.9701 42.8139C28.4768 42.3712 29.1381 42.1471 29.8095 42.1905C30.4809 42.234 31.1078 42.5415 31.5531 43.0458C31.6982 43.2125 32.0889 43.5625 32.6756 43.9291C33.6607 44.5451 34.7693 44.9091 35.9885 44.9091C38.3813 44.9091 39.9442 43.4913 39.8105 42.2644C39.6845 41.1138 38.6231 40.228 35.2338 38.4704L34.8278 38.2591C34.8129 38.2516 34.798 38.244 34.7833 38.2362L34.4231 38.0491C29.4811 35.4871 27.5173 33.8491 27.1291 30.2893C26.7205 26.55 29.518 23.3122 33.4545 22.3156V19.4545C33.4545 18.7794 33.7227 18.132 34.2001 17.6546C34.6775 17.1773 35.3249 16.9091 36 16.9091C36.6751 16.9091 37.3225 17.1773 37.7999 17.6546C38.2773 18.132 38.5455 18.7794 38.5455 19.4545V22.2915C39.7776 22.5843 40.9529 23.0789 42.0238 23.7551C43.0751 24.4118 43.8285 25.0876 44.2804 25.6044C44.7204 26.1133 44.9411 26.7757 44.8942 27.4469C44.8472 28.1181 44.5365 28.7434 44.0299 29.1861C43.5232 29.6288 42.8619 29.8529 42.1905 29.8095C41.5191 29.766 40.8922 29.4585 40.4469 28.9542C40.3018 28.7875 39.9111 28.4375 39.3244 28.0709C38.3393 27.4549 37.2307 27.0909 36.0115 27.0909C33.6187 27.0909 32.0558 28.5087 32.1895 29.7356C32.3155 30.8862 33.3769 31.772 36.7662 33.5296C37.0364 33.6696 37.3067 33.8096 37.5769 33.9496C42.5189 36.5129 44.4827 38.1522 44.8709 41.7107C45.2795 45.45 42.482 48.6878 38.5455 49.6844Z" fill="#3636EC"/>
</svg>
