<svg  width="90" viewBox="0 0 132 137" fill="none" xmlns="http://www.w3.org/2000/svg">
   <path d="M35.9213 83.6265C40.0236 80.0798 43.2499 77.174 45.6001 74.9092C47.9931 72.6017 49.9802 70.2087 51.5613 67.7302C53.1423 65.2518 53.9329 62.7733 53.9329 60.2949C53.9329 57.7309 53.3133 55.7225 52.074 54.2696C50.8775 52.8168 48.976 52.0903 46.3693 52.0903C43.8481 52.0903 41.8825 52.9022 40.4723 54.526C39.1049 56.1071 38.3784 58.2437 38.293 60.9358H31.2422C31.3704 56.0644 32.8233 52.3467 35.6009 49.7828C38.4212 47.1761 41.9893 45.8728 46.3052 45.8728C50.963 45.8728 54.5952 47.1548 57.2019 49.7187C59.8513 52.2826 61.176 55.7012 61.176 59.9744C61.176 63.0511 60.3854 66.0209 58.8043 68.884C57.266 71.7043 55.4071 74.2468 53.2278 76.5116C51.0912 78.7337 48.3564 81.319 45.0233 84.2675L42.1388 86.8314H62.4579V92.9207H31.3063V87.6006L35.9213 83.6265Z" fill="url(#paint0_linear_85_2678)"/>
   <path d="M64.775 83.8188V78.3064L86.3119 47.4112H95.1574V77.4731H101.119V83.8188H95.1574V93.5617H87.9784V83.8188H64.775ZM88.2989 54.8465L73.1718 77.4731H88.2989V54.8465Z" fill="url(#paint1_linear_85_2678)"/>
   <path fill-rule="evenodd" clip-rule="evenodd" d="M125.548 67.4619C124.3 67.7906 123.022 67.0453 122.693 65.7972C118.347 49.293 107.9 37.983 94.3726 32.4866C80.8028 26.973 63.9336 27.2366 46.7399 34.3381C45.547 34.8308 44.1806 34.2632 43.6879 33.0703C43.1952 31.8774 43.7628 30.511 44.9557 30.0183C63.0901 22.5281 81.2453 22.108 96.1319 28.1565C111.061 34.2221 122.503 46.7199 127.213 64.6069C127.542 65.855 126.796 67.1332 125.548 67.4619Z" fill="url(#paint2_angular_85_2678)"/>
   <path fill-rule="evenodd" clip-rule="evenodd" d="M30.4159 40.8603C31.1281 41.9367 30.8329 43.3866 29.7566 44.0988C12.6849 55.3952 5.76256 68.6724 5.51662 80.7411C5.26964 92.8612 11.7381 104.298 22.5302 111.944C43.954 127.122 82.7052 127.274 116.875 85.5516C117.693 84.5531 119.165 84.4065 120.163 85.2243C121.162 86.042 121.309 87.5144 120.491 88.5129C85.1062 131.719 43.6657 132.645 19.8283 115.757C7.98969 107.37 0.560158 94.5642 0.84378 80.6459C1.12845 66.6763 9.16535 52.1197 27.1775 40.201C28.2538 39.4888 29.7037 39.784 30.4159 40.8603Z" fill="url(#paint3_angular_85_2678)"/>
   <path fill-rule="evenodd" clip-rule="evenodd" d="M110.871 83.2211C112.157 83.3318 113.109 84.4639 112.999 85.7498C111.237 106.225 105.134 119.781 96.4319 127.755C87.6781 135.776 76.6458 137.829 65.7932 136.011C54.9848 134.2 44.2429 128.547 35.6696 120.972C27.1067 113.406 20.5082 103.745 18.253 93.7376C17.9693 92.4785 18.7599 91.2278 20.019 90.9441C21.278 90.6603 22.5287 91.451 22.8125 92.7101C24.7945 101.505 30.7151 110.358 38.7642 117.469C46.8028 124.572 56.7657 129.759 66.5657 131.401C76.3215 133.036 85.8013 131.156 93.2743 124.309C100.799 117.414 106.637 105.165 108.342 85.3491C108.453 84.0632 109.585 83.1105 110.871 83.2211Z" fill="url(#paint4_angular_85_2678)"/>
   <path d="M25.8738 87.5524C25.8738 90.8712 23.1834 93.5616 19.8647 93.5616C16.5459 93.5616 13.8555 90.8712 13.8555 87.5524C13.8555 84.2336 16.5459 81.5432 19.8647 81.5432C23.1834 81.5432 25.8738 84.2336 25.8738 87.5524Z" fill="#2F0DFF"/>
   <path fill-rule="evenodd" clip-rule="evenodd" d="M31.9651 18.1226C37.5714 14.299 43.8734 11.6351 50.5111 10.2837C57.1488 8.93226 63.9908 8.92024 70.6458 10.2475C77.3007 11.5747 83.6373 14.215 89.2944 18.0158C94.9514 21.8165 99.8181 26.7033 103.618 32.396C107.418 38.0886 110.077 44.4765 111.445 51.1951C111.703 52.4598 110.886 53.6937 109.622 53.9512C108.357 54.2087 107.123 53.3922 106.865 52.1275C105.618 46.0015 103.194 40.1784 99.7307 34.9908C96.268 29.8033 91.8355 25.3538 86.6879 21.8953C81.5403 18.4368 75.7784 16.037 69.7316 14.831C63.685 13.6251 57.4708 13.6364 51.4435 14.8635C45.4163 16.0906 39.6924 18.5098 34.5985 21.9839C29.5046 25.458 25.1396 29.9196 21.754 35.1154C18.3683 40.3113 16.0284 46.1396 14.8695 52.268C13.7105 58.3965 13.7556 64.704 15.0028 70.8301C15.2603 72.0948 14.4438 73.3288 13.1791 73.5862C11.9144 73.8437 10.6805 73.0272 10.423 71.7625C9.05513 65.0439 9.00529 58.1247 10.277 51.3996C11.5488 44.6743 14.1175 38.2738 17.8382 32.5638C21.5589 26.8538 26.3588 21.9462 31.9651 18.1226Z" fill="url(#paint5_angular_85_2678)"/>
   <defs>
   <linearGradient id="paint0_linear_85_2678" x1="27.8786" y1="44.1528" x2="104.786" y2="96.0743" gradientUnits="userSpaceOnUse">
   <stop stop-color="#2F0DFF"/>
   <stop offset="1" stop-color="#EB00FF"/>
   </linearGradient>
   <linearGradient id="paint1_linear_85_2678" x1="27.8786" y1="44.1528" x2="104.786" y2="96.0743" gradientUnits="userSpaceOnUse">
   <stop stop-color="#2F0DFF"/>
   <stop offset="1" stop-color="#EB00FF"/>
   </linearGradient>
   <radialGradient id="paint2_angular_85_2678" cx="0" cy="0" r="1" gradientUnits="userSpaceOnUse" gradientTransform="translate(82.7119 48.6903) rotate(22.249) scale(45.6376 28.5888)">
   <stop offset="0.478015" stop-color="#060028" stop-opacity="0"/>
   <stop offset="0.987794" stop-color="#EB00FF"/>
   </radialGradient>
   <radialGradient id="paint3_angular_85_2678" cx="0" cy="0" r="1" gradientUnits="userSpaceOnUse" gradientTransform="translate(58.5714 73.7942) rotate(-69.0595) scale(45.7533 59.9192)">
   <stop offset="0.197972" stop-color="#EB00FF"/>
   <stop offset="0.983388" stop-color="#060028" stop-opacity="0"/>
   </radialGradient>
   <radialGradient id="paint4_angular_85_2678" cx="0" cy="0" r="1" gradientUnits="userSpaceOnUse" gradientTransform="translate(67.5277 96.2936) rotate(177.149) scale(46.2818 38.7068)">
   <stop offset="0.515935" stop-color="#060028" stop-opacity="0"/>
   <stop offset="0.990018" stop-color="#2F0DFF"/>
   </radialGradient>
   <radialGradient id="paint5_angular_85_2678" cx="0" cy="0" r="1" gradientUnits="userSpaceOnUse" gradientTransform="translate(48.7472 36.7895) rotate(63.7286) scale(27.5333 54.2964)">
   <stop offset="0.149754" stop-color="#2F0DFF"/>
   <stop offset="0.915519" stop-color="#150E41" stop-opacity="0"/>
   </radialGradient>
   </defs>
</svg>