<svg width="72" height="72" viewBox="0 0 72 72" fill="none" xmlns="http://www.w3.org/2000/svg">
<path d="M40.151 59.5794H12.851C11.9638 59.5816 11.0877 59.382 10.289 58.9957C9.49035 58.6093 8.79001 58.0464 8.241 57.3494C7.70436 56.6781 7.32737 55.8935 7.13854 55.055C6.9497 54.2165 6.95397 53.346 7.151 52.5094C8.1866 48.1562 10.6599 44.2794 14.1711 41.5054C17.6823 38.7315 22.0263 37.2227 26.501 37.2227C30.9757 37.2227 35.3197 38.7315 38.8309 41.5054C42.3421 44.2794 44.8154 48.1562 45.851 52.5094C46.0474 53.3477 46.0513 54.2195 45.8626 55.0595C45.6738 55.8995 45.2972 56.6858 44.761 57.3594C44.21 58.0534 43.509 58.6137 42.7106 58.9982C41.9122 59.3826 41.0371 59.5814 40.151 59.5794ZM26.501 42.2094C23.1433 42.1886 19.8784 43.3108 17.2432 45.3918C14.6079 47.4727 12.7592 50.3884 12.001 53.6594C11.9779 53.762 11.9785 53.8684 12.0027 53.9706C12.027 54.0729 12.0743 54.1683 12.141 54.2494C12.2243 54.3523 12.3294 54.4353 12.4487 54.4923C12.5681 54.5494 12.6987 54.5792 12.831 54.5794H40.131C40.2633 54.5792 40.3939 54.5494 40.5133 54.4923C40.6326 54.4353 40.7377 54.3523 40.821 54.2494C40.8877 54.1683 40.935 54.0729 40.9593 53.9706C40.9835 53.8684 40.9841 53.762 40.961 53.6594C40.2043 50.3951 38.3615 47.4845 35.7345 45.4043C33.1074 43.3241 29.8519 42.1976 26.501 42.2094Z" fill="#3636EC"/>
<path d="M26.5002 34.66C24.3578 34.662 22.2629 34.0285 20.4806 32.8397C18.6983 31.6509 17.3086 29.9601 16.4874 27.9814C15.6662 26.0026 15.4503 23.8248 15.867 21.7233C16.2838 19.6218 17.3145 17.6912 18.8287 16.1756C20.3429 14.66 22.2726 13.6275 24.3737 13.2088C26.4747 12.7901 28.6528 13.004 30.6323 13.8234C32.6118 14.6428 34.3038 16.0309 35.4943 17.8121C36.6847 19.5933 37.3202 21.6876 37.3202 23.83C37.3175 26.6998 36.177 29.4514 34.1487 31.4815C32.1205 33.5117 29.3699 34.6547 26.5002 34.66ZM26.5002 18.01C25.3462 18.008 24.2177 18.3485 23.2574 18.9884C22.2972 19.6282 21.5484 20.5386 21.1059 21.6043C20.6634 22.67 20.5471 23.8431 20.7717 24.9749C20.9963 26.1068 21.5518 27.1465 22.3677 27.9624C23.1837 28.7784 24.2234 29.3338 25.3552 29.5585C26.4871 29.7831 27.6601 29.6668 28.7258 29.2243C29.7915 28.7818 30.7019 28.033 31.3418 27.0727C31.9816 26.1125 32.3221 24.9839 32.3202 23.83C32.3175 22.2873 31.7035 20.8084 30.6126 19.7176C29.5217 18.6267 28.0429 18.0126 26.5002 18.01Z" fill="#3636EC"/>
<path d="M60.7417 59.5791H37.2617C36.5987 59.5791 35.9628 59.3157 35.494 58.8469C35.0251 58.378 34.7617 57.7422 34.7617 57.0791C34.7617 56.4161 35.0251 55.7802 35.494 55.3113C35.9628 54.8425 36.5987 54.5791 37.2617 54.5791H60.7417C60.7835 54.5799 60.825 54.5714 60.8631 54.5541C60.9011 54.5368 60.9348 54.5112 60.9617 54.4791C60.97 54.4602 60.9742 54.4398 60.9742 54.4191C60.9742 54.3985 60.97 54.378 60.9617 54.3591C60.4915 52.3814 59.5191 50.5583 58.1386 49.0661C56.758 47.574 55.0159 46.463 53.0807 45.8407C51.1454 45.2184 49.0823 45.1058 47.0908 45.5136C45.0992 45.9215 43.2465 46.8361 41.7117 48.1691C41.4663 48.3977 41.1773 48.5746 40.8621 48.6892C40.5468 48.8039 40.2117 48.8539 39.8768 48.8363C39.5418 48.8187 39.2138 48.7339 38.9123 48.5869C38.6107 48.4399 38.3419 48.2337 38.1217 47.9807C37.9016 47.7276 37.7346 47.4328 37.6307 47.1139C37.5268 46.7949 37.4882 46.4583 37.5171 46.1241C37.5461 45.7899 37.6419 45.465 37.7991 45.1686C37.9562 44.8723 38.1713 44.6106 38.4317 44.3991C40.6145 42.4973 43.2517 41.1918 46.0876 40.6092C48.9234 40.0267 51.8617 40.1869 54.6175 41.0743C57.3732 41.9617 59.8528 43.5461 61.8159 45.674C63.779 47.8019 65.1589 50.4009 65.8217 53.2191C65.9966 53.9741 65.9974 54.759 65.8241 55.5143C65.6509 56.2697 65.3081 56.9758 64.8217 57.5791C64.3339 58.1957 63.7143 58.6954 63.0083 59.0414C62.3024 59.3875 61.5279 59.5712 60.7417 59.5791Z" fill="#3636EC"/>
<path d="M49.5004 39.0106C47.6511 39.0106 45.8434 38.4622 44.3058 37.4348C42.7682 36.4074 41.5698 34.9471 40.8621 33.2386C40.1544 31.5302 39.9693 29.6502 40.3301 27.8365C40.6908 26.0227 41.5813 24.3567 42.8889 23.0491C44.1966 21.7415 45.8626 20.851 47.6763 20.4902C49.49 20.1294 51.37 20.3146 53.0785 21.0223C54.787 21.73 56.2472 22.9284 57.2746 24.466C58.302 26.0036 58.8504 27.8113 58.8504 29.6606C58.8504 30.8884 58.6086 32.1042 58.1387 33.2386C57.6688 34.373 56.9801 35.4038 56.1118 36.272C55.2436 37.1402 54.2129 37.8289 53.0785 38.2988C51.9441 38.7687 50.7283 39.0106 49.5004 39.0106ZM49.5004 25.3106C48.64 25.3106 47.799 25.5657 47.0837 26.0437C46.3683 26.5216 45.8108 27.201 45.4815 27.9959C45.1523 28.7907 45.0661 29.6654 45.234 30.5092C45.4018 31.353 45.8161 32.1281 46.4245 32.7365C47.0328 33.3448 47.8079 33.7591 48.6518 33.927C49.4956 34.0948 50.3702 34.0087 51.1651 33.6794C51.9599 33.3502 52.6393 32.7926 53.1173 32.0773C53.5953 31.3619 53.8504 30.5209 53.8504 29.6606C53.8398 28.5138 53.3769 27.4176 52.5623 26.6105C51.7476 25.8033 50.6472 25.3505 49.5004 25.3506V25.3106Z" fill="#3636EC"/>
</svg>
