<svg width="48" height="48" viewBox="0 0 48 48" fill="none" xmlns="http://www.w3.org/2000/svg">
<path fill-rule="evenodd" clip-rule="evenodd" d="M36.96 43.2C19.2264 43.2 4.8 28.7712 4.8 11.04C4.8 7.5984 7.5984 4.8 11.04 4.8C11.3016 4.8 11.5608 4.8168 11.8248 4.8504L14.3712 15.9408C14.0565 16.1045 13.7197 16.2807 13.3912 16.4525L13.3894 16.4534L13.08 16.6152C11.0112 17.6952 9.3792 18.5496 10.236 20.4336C13.0584 28.464 19.536 34.944 27.4704 37.728C29.4919 38.538 30.2763 37.0381 31.3608 34.9643L31.3752 34.9368C31.4998 34.7008 31.6281 34.4545 31.7553 34.2105L31.7553 34.2103L31.7557 34.2097C31.8585 34.0124 31.9605 33.8165 32.0592 33.6288L43.1472 36.1728C43.1832 36.432 43.2 36.6936 43.2 36.96C43.2 40.4016 40.4016 43.2 36.96 43.2ZM47.4024 33.3792C47.1312 32.5992 46.4784 32.0136 45.672 31.8288L31.3584 28.5432C30.5688 28.3656 29.7432 28.5888 29.16 29.1504C28.8168 29.4768 28.8096 29.4864 27.2496 32.4648C22.1376 30.1368 17.9496 25.9632 15.54 20.7456C18.5136 19.188 18.5208 19.1808 18.8496 18.84C19.4112 18.2544 19.6368 17.4288 19.4568 16.6416L16.1712 2.328C15.9864 1.5216 15.3984 0.8664 14.6184 0.5952C14.0472 0.3984 13.4592 0.2496 12.8784 0.156C12.2808 0.0528 11.664 0 11.04 0C4.9512 0 0 4.9512 0 11.04C0 31.4208 16.5792 48 36.96 48C43.0464 48 48 43.0488 48 36.96C48 36.3408 47.9448 35.7288 47.844 35.1336C47.748 34.5336 47.5992 33.9456 47.4024 33.3792ZM26.3988 14.4C30.3684 14.4 33.5988 17.6304 33.5988 21.6C33.5988 22.9272 34.6716 24 35.9988 24C37.326 24 38.3988 22.9272 38.3988 21.6C38.3988 14.9832 33.0156 9.6 26.3988 9.6C25.074 9.6 23.9988 10.6728 23.9988 12C23.9988 13.3272 25.074 14.4 26.3988 14.4ZM43.1988 21.6C43.1988 12.3384 35.6604 4.8 26.3988 4.8C25.074 4.8 23.9988 3.7272 23.9988 2.4C23.9988 1.0728 25.074 0 26.3988 0C38.31 0 47.9988 9.6888 47.9988 21.6C47.9988 22.9272 46.926 24 45.5988 24C44.2716 24 43.1988 22.9272 43.1988 21.6Z" fill="#3636EC"/>
</svg>
